<mxfile host="Electron" modified="2023-09-15T17:12:34.995Z" agent="Mozilla/5.0 (Windows NT 10.0; Win64; x64) AppleWebKit/537.36 (KHTML, like Gecko) draw.io/21.6.8 Chrome/114.0.5735.289 Electron/25.5.0 Safari/537.36" etag="IOfFLDVJQ6fkCIx-G5fu" version="21.6.8" type="device">
  <diagram name="Page-1" id="iaMmfLkFWlHhySMgeEFM">
    <mxGraphModel dx="3787" dy="2923" grid="1" gridSize="10" guides="1" tooltips="1" connect="1" arrows="1" fold="1" page="1" pageScale="1" pageWidth="827" pageHeight="1169" math="0" shadow="0">
      <root>
        <mxCell id="0" />
        <mxCell id="1" parent="0" />
        <mxCell id="Tw4VB3FX5BYVcJqlLoP5-286" value="" style="rounded=0;whiteSpace=wrap;html=1;hachureGap=4;fontFamily=Architects Daughter;fontSource=https%3A%2F%2Ffonts.googleapis.com%2Fcss%3Ffamily%3DArchitects%2BDaughter;fontSize=20;fillColor=none;sketch=1;curveFitting=1;jiggle=2;" parent="1" vertex="1">
          <mxGeometry x="-467.5" y="370" width="260" height="860" as="geometry" />
        </mxCell>
        <mxCell id="dgVakmgCQbhf1UZAdD23-1" value="Support Subsystem" style="rounded=0;whiteSpace=wrap;html=1;hachureGap=4;fontFamily=Architects Daughter;fontSource=https%3A%2F%2Ffonts.googleapis.com%2Fcss%3Ffamily%3DArchitects%2BDaughter;fontSize=20;sketch=1;curveFitting=1;jiggle=2;" parent="1" vertex="1">
          <mxGeometry x="-430" y="514" width="160" height="100" as="geometry" />
        </mxCell>
        <mxCell id="dgVakmgCQbhf1UZAdD23-11" style="edgeStyle=orthogonalEdgeStyle;rounded=0;hachureGap=4;orthogonalLoop=1;jettySize=auto;html=1;entryX=0.5;entryY=0;entryDx=0;entryDy=0;fontFamily=Architects Daughter;fontSource=https%3A%2F%2Ffonts.googleapis.com%2Fcss%3Ffamily%3DArchitects%2BDaughter;fontSize=16;sketch=1;curveFitting=1;jiggle=2;" parent="1" source="dgVakmgCQbhf1UZAdD23-2" target="dgVakmgCQbhf1UZAdD23-6" edge="1">
          <mxGeometry relative="1" as="geometry" />
        </mxCell>
        <mxCell id="dgVakmgCQbhf1UZAdD23-29" style="edgeStyle=orthogonalEdgeStyle;rounded=0;hachureGap=4;orthogonalLoop=1;jettySize=auto;html=1;entryX=0.5;entryY=1;entryDx=0;entryDy=0;fontFamily=Architects Daughter;fontSource=https%3A%2F%2Ffonts.googleapis.com%2Fcss%3Ffamily%3DArchitects%2BDaughter;fontSize=16;startArrow=classic;startFill=1;sketch=1;curveFitting=1;jiggle=2;" parent="1" edge="1">
          <mxGeometry relative="1" as="geometry">
            <mxPoint x="-346" y="713" as="sourcePoint" />
            <mxPoint x="-346" y="643" as="targetPoint" />
          </mxGeometry>
        </mxCell>
        <mxCell id="8fw_uYAXPcDjaam-9VHa-3" style="edgeStyle=orthogonalEdgeStyle;rounded=0;hachureGap=4;orthogonalLoop=1;jettySize=auto;html=1;entryX=0.066;entryY=0.435;entryDx=0;entryDy=0;entryPerimeter=0;fontFamily=Architects Daughter;fontSource=https%3A%2F%2Ffonts.googleapis.com%2Fcss%3Ffamily%3DArchitects%2BDaughter;fontSize=16;sketch=1;curveFitting=1;jiggle=2;" parent="1" source="dgVakmgCQbhf1UZAdD23-2" target="Tw4VB3FX5BYVcJqlLoP5-24" edge="1">
          <mxGeometry relative="1" as="geometry" />
        </mxCell>
        <mxCell id="8fw_uYAXPcDjaam-9VHa-6" value="Token" style="edgeLabel;html=1;align=center;verticalAlign=middle;resizable=0;points=[];fontSize=20;fontFamily=Architects Daughter;sketch=1;curveFitting=1;jiggle=2;" parent="8fw_uYAXPcDjaam-9VHa-3" vertex="1" connectable="0">
          <mxGeometry x="-0.0543" y="6" relative="1" as="geometry">
            <mxPoint as="offset" />
          </mxGeometry>
        </mxCell>
        <mxCell id="dgVakmgCQbhf1UZAdD23-2" value="Trip Management Subsystem" style="rounded=0;whiteSpace=wrap;html=1;hachureGap=4;fontFamily=Architects Daughter;fontSource=https%3A%2F%2Ffonts.googleapis.com%2Fcss%3Ffamily%3DArchitects%2BDaughter;fontSize=20;sketch=1;curveFitting=1;jiggle=2;" parent="1" vertex="1">
          <mxGeometry x="-430" y="713" width="160" height="100" as="geometry" />
        </mxCell>
        <mxCell id="8fw_uYAXPcDjaam-9VHa-2" style="edgeStyle=orthogonalEdgeStyle;rounded=0;hachureGap=4;orthogonalLoop=1;jettySize=auto;html=1;entryX=0.55;entryY=0.95;entryDx=0;entryDy=0;entryPerimeter=0;fontFamily=Architects Daughter;fontSource=https%3A%2F%2Ffonts.googleapis.com%2Fcss%3Ffamily%3DArchitects%2BDaughter;fontSize=16;sketch=1;curveFitting=1;jiggle=2;" parent="1" edge="1">
          <mxGeometry relative="1" as="geometry">
            <mxPoint x="-270" y="991.55" as="sourcePoint" />
            <mxPoint x="469" y="943.9999999999998" as="targetPoint" />
          </mxGeometry>
        </mxCell>
        <mxCell id="8fw_uYAXPcDjaam-9VHa-7" value="Token" style="edgeLabel;html=1;align=center;verticalAlign=middle;resizable=0;points=[];fontSize=20;fontFamily=Architects Daughter;sketch=1;curveFitting=1;jiggle=2;" parent="8fw_uYAXPcDjaam-9VHa-2" vertex="1" connectable="0">
          <mxGeometry x="-0.4177" y="-13" relative="1" as="geometry">
            <mxPoint as="offset" />
          </mxGeometry>
        </mxCell>
        <mxCell id="dgVakmgCQbhf1UZAdD23-6" value="Reporting &amp;amp; Analytics Subsystem" style="rounded=0;whiteSpace=wrap;html=1;hachureGap=4;fontFamily=Architects Daughter;fontSource=https%3A%2F%2Ffonts.googleapis.com%2Fcss%3Ffamily%3DArchitects%2BDaughter;fontSize=20;sketch=1;curveFitting=1;jiggle=2;" parent="1" vertex="1">
          <mxGeometry x="-430" y="940" width="160" height="100" as="geometry" />
        </mxCell>
        <mxCell id="dgVakmgCQbhf1UZAdD23-18" style="edgeStyle=orthogonalEdgeStyle;rounded=0;hachureGap=4;orthogonalLoop=1;jettySize=auto;html=1;fontFamily=Architects Daughter;fontSource=https%3A%2F%2Ffonts.googleapis.com%2Fcss%3Ffamily%3DArchitects%2BDaughter;fontSize=16;entryX=0;entryY=0.5;entryDx=0;entryDy=0;sketch=1;curveFitting=1;jiggle=2;" parent="1" source="dgVakmgCQbhf1UZAdD23-13" target="dgVakmgCQbhf1UZAdD23-1" edge="1">
          <mxGeometry relative="1" as="geometry">
            <mxPoint x="-460.0000000000002" y="584" as="targetPoint" />
          </mxGeometry>
        </mxCell>
        <mxCell id="dgVakmgCQbhf1UZAdD23-13" value="Support User" style="shape=umlActor;verticalLabelPosition=bottom;verticalAlign=top;html=1;outlineConnect=0;hachureGap=4;fontFamily=Architects Daughter;fontSource=https%3A%2F%2Ffonts.googleapis.com%2Fcss%3Ffamily%3DArchitects%2BDaughter;fontSize=20;sketch=1;curveFitting=1;jiggle=2;" parent="1" vertex="1">
          <mxGeometry x="-600" y="574" width="30" height="60" as="geometry" />
        </mxCell>
        <mxCell id="dgVakmgCQbhf1UZAdD23-17" style="edgeStyle=orthogonalEdgeStyle;rounded=0;hachureGap=4;orthogonalLoop=1;jettySize=auto;html=1;entryX=0;entryY=0.5;entryDx=0;entryDy=0;fontFamily=Architects Daughter;fontSource=https%3A%2F%2Ffonts.googleapis.com%2Fcss%3Ffamily%3DArchitects%2BDaughter;fontSize=16;sketch=1;curveFitting=1;jiggle=2;" parent="1" source="dgVakmgCQbhf1UZAdD23-16" target="dgVakmgCQbhf1UZAdD23-1" edge="1">
          <mxGeometry relative="1" as="geometry" />
        </mxCell>
        <mxCell id="dgVakmgCQbhf1UZAdD23-16" value="Travel Agent" style="shape=umlActor;verticalLabelPosition=bottom;verticalAlign=top;html=1;outlineConnect=0;hachureGap=4;fontFamily=Architects Daughter;fontSource=https%3A%2F%2Ffonts.googleapis.com%2Fcss%3Ffamily%3DArchitects%2BDaughter;fontSize=20;sketch=1;curveFitting=1;jiggle=2;" parent="1" vertex="1">
          <mxGeometry x="-600" y="484" width="30" height="60" as="geometry" />
        </mxCell>
        <mxCell id="dgVakmgCQbhf1UZAdD23-21" style="edgeStyle=orthogonalEdgeStyle;rounded=0;hachureGap=4;orthogonalLoop=1;jettySize=auto;html=1;entryX=0;entryY=0.5;entryDx=0;entryDy=0;fontFamily=Architects Daughter;fontSource=https%3A%2F%2Ffonts.googleapis.com%2Fcss%3Ffamily%3DArchitects%2BDaughter;fontSize=16;sketch=1;curveFitting=1;jiggle=2;" parent="1" source="dgVakmgCQbhf1UZAdD23-20" target="dgVakmgCQbhf1UZAdD23-2" edge="1">
          <mxGeometry relative="1" as="geometry" />
        </mxCell>
        <mxCell id="dgVakmgCQbhf1UZAdD23-20" value="Traveller" style="shape=umlActor;verticalLabelPosition=bottom;verticalAlign=top;html=1;outlineConnect=0;hachureGap=4;fontFamily=Architects Daughter;fontSource=https%3A%2F%2Ffonts.googleapis.com%2Fcss%3Ffamily%3DArchitects%2BDaughter;fontSize=20;sketch=1;curveFitting=1;jiggle=2;" parent="1" vertex="1">
          <mxGeometry x="-600" y="733" width="30" height="60" as="geometry" />
        </mxCell>
        <mxCell id="dgVakmgCQbhf1UZAdD23-30" value="Request / Response" style="edgeLabel;html=1;align=center;verticalAlign=middle;resizable=0;points=[];fontSize=20;fontFamily=Architects Daughter;sketch=1;curveFitting=1;jiggle=2;" parent="1" vertex="1" connectable="0">
          <mxGeometry x="-342.5" y="653.9999999999999" as="geometry" />
        </mxCell>
        <mxCell id="dgVakmgCQbhf1UZAdD23-32" style="edgeStyle=orthogonalEdgeStyle;rounded=0;hachureGap=4;orthogonalLoop=1;jettySize=auto;html=1;fontFamily=Architects Daughter;fontSource=https%3A%2F%2Ffonts.googleapis.com%2Fcss%3Ffamily%3DArchitects%2BDaughter;fontSize=16;sketch=1;curveFitting=1;jiggle=2;" parent="1" source="dgVakmgCQbhf1UZAdD23-31" target="dgVakmgCQbhf1UZAdD23-6" edge="1">
          <mxGeometry relative="1" as="geometry" />
        </mxCell>
        <mxCell id="dgVakmgCQbhf1UZAdD23-31" value="Data Consumer" style="shape=umlActor;verticalLabelPosition=bottom;verticalAlign=top;html=1;outlineConnect=0;hachureGap=4;fontFamily=Architects Daughter;fontSource=https%3A%2F%2Ffonts.googleapis.com%2Fcss%3Ffamily%3DArchitects%2BDaughter;fontSize=20;sketch=1;curveFitting=1;jiggle=2;" parent="1" vertex="1">
          <mxGeometry x="-600" y="959" width="30" height="60" as="geometry" />
        </mxCell>
        <mxCell id="Tw4VB3FX5BYVcJqlLoP5-9" value="" style="swimlane;startSize=0;hachureGap=4;fontFamily=Architects Daughter;fontSource=https%3A%2F%2Ffonts.googleapis.com%2Fcss%3Ffamily%3DArchitects%2BDaughter;fontSize=20;fillColor=#f0a30a;fontColor=#000000;strokeColor=#BD7000;container=0;sketch=1;curveFitting=1;jiggle=2;" parent="1" vertex="1">
          <mxGeometry x="20" y="380" width="1460" height="840" as="geometry" />
        </mxCell>
        <mxCell id="8fw_uYAXPcDjaam-9VHa-4" style="edgeStyle=orthogonalEdgeStyle;rounded=0;hachureGap=4;orthogonalLoop=1;jettySize=auto;html=1;entryX=0.432;entryY=0.089;entryDx=0;entryDy=0;entryPerimeter=0;fontFamily=Architects Daughter;fontSource=https%3A%2F%2Ffonts.googleapis.com%2Fcss%3Ffamily%3DArchitects%2BDaughter;fontSize=16;exitX=1.01;exitY=0.615;exitDx=0;exitDy=0;exitPerimeter=0;sketch=1;curveFitting=1;jiggle=2;" parent="Tw4VB3FX5BYVcJqlLoP5-9" source="dgVakmgCQbhf1UZAdD23-1" edge="1">
          <mxGeometry relative="1" as="geometry">
            <mxPoint x="-210" y="187.88" as="sourcePoint" />
            <mxPoint x="460.5600000000004" y="264.119" as="targetPoint" />
            <Array as="points">
              <mxPoint x="-288" y="188" />
              <mxPoint y="188" />
              <mxPoint y="184" />
              <mxPoint x="461" y="184" />
            </Array>
          </mxGeometry>
        </mxCell>
        <mxCell id="8fw_uYAXPcDjaam-9VHa-5" value="Token" style="edgeLabel;html=1;align=center;verticalAlign=middle;resizable=0;points=[];fontSize=20;fontFamily=Architects Daughter;sketch=1;curveFitting=1;jiggle=2;" parent="8fw_uYAXPcDjaam-9VHa-4" vertex="1" connectable="0">
          <mxGeometry x="-0.0079" y="9" relative="1" as="geometry">
            <mxPoint x="-1" as="offset" />
          </mxGeometry>
        </mxCell>
        <mxCell id="Tw4VB3FX5BYVcJqlLoP5-14" value="Authentication &amp;amp; Authorization Subsystem" style="text;html=1;strokeColor=#BD7000;fillColor=#f0a30a;align=center;verticalAlign=middle;whiteSpace=wrap;rounded=0;fontSize=20;fontFamily=Architects Daughter;fontColor=#000000;container=0;sketch=1;curveFitting=1;jiggle=2;" parent="1" vertex="1">
          <mxGeometry x="-70" y="350" width="430" height="30" as="geometry" />
        </mxCell>
        <mxCell id="Tw4VB3FX5BYVcJqlLoP5-33" value="&lt;h1&gt;Authentication &amp;amp; Authorization Subsystem&lt;br&gt;&lt;/h1&gt;&lt;h1&gt;&lt;span style=&quot;background-color: initial; font-size: 20px; font-weight: normal;&quot;&gt;Uses cloud based authentication and identity providers.&lt;/span&gt;&lt;br&gt;&lt;/h1&gt;&lt;div&gt;&lt;ul&gt;&lt;li&gt;Abstracts away nuances of authentication flows (traveller login, system authentication, password recovery etc)&lt;/li&gt;&lt;li&gt;Standards such as Oauth, OIDC and SAML are easily available, this reduces vendor lock-in&lt;br&gt;&lt;/li&gt;&lt;li&gt;Extensible: because newer, features like WebAuthn are easiliy available (this can potentially increase vendor lock-in)&lt;br&gt;&lt;/li&gt;&lt;li&gt;Quick way to implement user management dashboards&lt;/li&gt;&lt;li&gt;Access log can also be incorporated&lt;/li&gt;&lt;/ul&gt;&lt;/div&gt;" style="text;html=1;strokeColor=#6c8ebf;fillColor=#dae8fc;spacing=5;spacingTop=-20;whiteSpace=wrap;overflow=hidden;rounded=0;fontSize=20;fontFamily=Architects Daughter;sketch=1;curveFitting=1;jiggle=2;" parent="1" vertex="1">
          <mxGeometry x="300" y="-40" width="1180" height="380" as="geometry" />
        </mxCell>
        <mxCell id="Tw4VB3FX5BYVcJqlLoP5-236" value="" style="group;sketch=1;curveFitting=1;jiggle=2;" parent="1" vertex="1" connectable="0">
          <mxGeometry x="-430" y="1300" width="1990" height="878" as="geometry" />
        </mxCell>
        <mxCell id="Tw4VB3FX5BYVcJqlLoP5-123" value="Roles" style="shape=table;startSize=90;container=1;collapsible=0;childLayout=tableLayout;strokeColor=#BD7000;fontSize=29;hachureGap=4;fontFamily=Architects Daughter;fontSource=https%3A%2F%2Ffonts.googleapis.com%2Fcss%3Ffamily%3DArchitects%2BDaughter;fillColor=#f0a30a;fontColor=#000000;fontStyle=0;sketch=1;curveFitting=1;jiggle=2;" parent="Tw4VB3FX5BYVcJqlLoP5-236" vertex="1">
          <mxGeometry width="1990.0000000000002" height="741" as="geometry" />
        </mxCell>
        <mxCell id="Tw4VB3FX5BYVcJqlLoP5-168" style="shape=tableRow;horizontal=0;startSize=0;swimlaneHead=0;swimlaneBody=0;strokeColor=inherit;top=0;left=0;bottom=0;right=0;collapsible=0;dropTarget=0;fillColor=none;points=[[0,0.5],[1,0.5]];portConstraint=eastwest;fontSize=16;hachureGap=4;fontFamily=Architects Daughter;fontSource=https%3A%2F%2Ffonts.googleapis.com%2Fcss%3Ffamily%3DArchitects%2BDaughter;sketch=1;curveFitting=1;jiggle=2;" parent="Tw4VB3FX5BYVcJqlLoP5-123" vertex="1">
          <mxGeometry y="90" width="1990.0000000000002" height="250" as="geometry" />
        </mxCell>
        <mxCell id="Tw4VB3FX5BYVcJqlLoP5-198" style="shape=partialRectangle;html=1;whiteSpace=wrap;connectable=0;strokeColor=inherit;overflow=hidden;fillColor=none;top=0;left=0;bottom=0;right=0;pointerEvents=1;fontSize=16;hachureGap=4;fontFamily=Architects Daughter;fontSource=https%3A%2F%2Ffonts.googleapis.com%2Fcss%3Ffamily%3DArchitects%2BDaughter;sketch=1;curveFitting=1;jiggle=2;" parent="Tw4VB3FX5BYVcJqlLoP5-168" vertex="1">
          <mxGeometry width="332" height="250" as="geometry">
            <mxRectangle width="332" height="250" as="alternateBounds" />
          </mxGeometry>
        </mxCell>
        <mxCell id="Tw4VB3FX5BYVcJqlLoP5-169" style="shape=partialRectangle;html=1;whiteSpace=wrap;connectable=0;strokeColor=inherit;overflow=hidden;fillColor=none;top=0;left=0;bottom=0;right=0;pointerEvents=1;fontSize=16;hachureGap=4;fontFamily=Architects Daughter;fontSource=https%3A%2F%2Ffonts.googleapis.com%2Fcss%3Ffamily%3DArchitects%2BDaughter;sketch=1;curveFitting=1;jiggle=2;" parent="Tw4VB3FX5BYVcJqlLoP5-168" vertex="1">
          <mxGeometry x="332" width="331" height="250" as="geometry">
            <mxRectangle width="331" height="250" as="alternateBounds" />
          </mxGeometry>
        </mxCell>
        <mxCell id="Tw4VB3FX5BYVcJqlLoP5-170" style="shape=partialRectangle;html=1;whiteSpace=wrap;connectable=0;strokeColor=inherit;overflow=hidden;fillColor=none;top=0;left=0;bottom=0;right=0;pointerEvents=1;fontSize=16;hachureGap=4;fontFamily=Architects Daughter;fontSource=https%3A%2F%2Ffonts.googleapis.com%2Fcss%3Ffamily%3DArchitects%2BDaughter;sketch=1;curveFitting=1;jiggle=2;" parent="Tw4VB3FX5BYVcJqlLoP5-168" vertex="1">
          <mxGeometry x="663" width="332" height="250" as="geometry">
            <mxRectangle width="332" height="250" as="alternateBounds" />
          </mxGeometry>
        </mxCell>
        <mxCell id="Tw4VB3FX5BYVcJqlLoP5-171" style="shape=partialRectangle;html=1;whiteSpace=wrap;connectable=0;strokeColor=inherit;overflow=hidden;fillColor=none;top=0;left=0;bottom=0;right=0;pointerEvents=1;fontSize=16;hachureGap=4;fontFamily=Architects Daughter;fontSource=https%3A%2F%2Ffonts.googleapis.com%2Fcss%3Ffamily%3DArchitects%2BDaughter;sketch=1;curveFitting=1;jiggle=2;" parent="Tw4VB3FX5BYVcJqlLoP5-168" vertex="1">
          <mxGeometry x="995" width="332" height="250" as="geometry">
            <mxRectangle width="332" height="250" as="alternateBounds" />
          </mxGeometry>
        </mxCell>
        <mxCell id="Tw4VB3FX5BYVcJqlLoP5-172" style="shape=partialRectangle;html=1;whiteSpace=wrap;connectable=0;strokeColor=inherit;overflow=hidden;fillColor=none;top=0;left=0;bottom=0;right=0;pointerEvents=1;fontSize=16;hachureGap=4;fontFamily=Architects Daughter;fontSource=https%3A%2F%2Ffonts.googleapis.com%2Fcss%3Ffamily%3DArchitects%2BDaughter;sketch=1;curveFitting=1;jiggle=2;" parent="Tw4VB3FX5BYVcJqlLoP5-168" vertex="1">
          <mxGeometry x="1327" width="331" height="250" as="geometry">
            <mxRectangle width="331" height="250" as="alternateBounds" />
          </mxGeometry>
        </mxCell>
        <mxCell id="Tw4VB3FX5BYVcJqlLoP5-173" style="shape=partialRectangle;html=1;whiteSpace=wrap;connectable=0;strokeColor=inherit;overflow=hidden;fillColor=none;top=0;left=0;bottom=0;right=0;pointerEvents=1;fontSize=16;hachureGap=4;fontFamily=Architects Daughter;fontSource=https%3A%2F%2Ffonts.googleapis.com%2Fcss%3Ffamily%3DArchitects%2BDaughter;sketch=1;curveFitting=1;jiggle=2;" parent="Tw4VB3FX5BYVcJqlLoP5-168" vertex="1">
          <mxGeometry x="1658" width="332" height="250" as="geometry">
            <mxRectangle width="332" height="250" as="alternateBounds" />
          </mxGeometry>
        </mxCell>
        <mxCell id="Tw4VB3FX5BYVcJqlLoP5-128" value="" style="shape=tableRow;horizontal=0;startSize=0;swimlaneHead=0;swimlaneBody=0;strokeColor=inherit;top=0;left=0;bottom=0;right=0;collapsible=0;dropTarget=0;fillColor=none;points=[[0,0.5],[1,0.5]];portConstraint=eastwest;fontSize=16;hachureGap=4;fontFamily=Architects Daughter;fontSource=https%3A%2F%2Ffonts.googleapis.com%2Fcss%3Ffamily%3DArchitects%2BDaughter;sketch=1;curveFitting=1;jiggle=2;" parent="Tw4VB3FX5BYVcJqlLoP5-123" vertex="1">
          <mxGeometry y="340" width="1990.0000000000002" height="90" as="geometry" />
        </mxCell>
        <mxCell id="Tw4VB3FX5BYVcJqlLoP5-199" style="shape=partialRectangle;html=1;whiteSpace=wrap;connectable=0;strokeColor=inherit;overflow=hidden;fillColor=none;top=0;left=0;bottom=0;right=0;pointerEvents=1;fontSize=16;hachureGap=4;fontFamily=Architects Daughter;fontSource=https%3A%2F%2Ffonts.googleapis.com%2Fcss%3Ffamily%3DArchitects%2BDaughter;sketch=1;curveFitting=1;jiggle=2;" parent="Tw4VB3FX5BYVcJqlLoP5-128" vertex="1">
          <mxGeometry width="332" height="90" as="geometry">
            <mxRectangle width="332" height="90" as="alternateBounds" />
          </mxGeometry>
        </mxCell>
        <mxCell id="Tw4VB3FX5BYVcJqlLoP5-129" value="" style="shape=partialRectangle;html=1;whiteSpace=wrap;connectable=0;strokeColor=inherit;overflow=hidden;fillColor=none;top=0;left=0;bottom=0;right=0;pointerEvents=1;fontSize=16;hachureGap=4;fontFamily=Architects Daughter;fontSource=https%3A%2F%2Ffonts.googleapis.com%2Fcss%3Ffamily%3DArchitects%2BDaughter;sketch=1;curveFitting=1;jiggle=2;" parent="Tw4VB3FX5BYVcJqlLoP5-128" vertex="1">
          <mxGeometry x="332" width="331" height="90" as="geometry">
            <mxRectangle width="331" height="90" as="alternateBounds" />
          </mxGeometry>
        </mxCell>
        <mxCell id="Tw4VB3FX5BYVcJqlLoP5-130" value="" style="shape=partialRectangle;html=1;whiteSpace=wrap;connectable=0;strokeColor=inherit;overflow=hidden;fillColor=none;top=0;left=0;bottom=0;right=0;pointerEvents=1;fontSize=16;hachureGap=4;fontFamily=Architects Daughter;fontSource=https%3A%2F%2Ffonts.googleapis.com%2Fcss%3Ffamily%3DArchitects%2BDaughter;sketch=1;curveFitting=1;jiggle=2;" parent="Tw4VB3FX5BYVcJqlLoP5-128" vertex="1">
          <mxGeometry x="663" width="332" height="90" as="geometry">
            <mxRectangle width="332" height="90" as="alternateBounds" />
          </mxGeometry>
        </mxCell>
        <mxCell id="Tw4VB3FX5BYVcJqlLoP5-131" value="" style="shape=partialRectangle;html=1;whiteSpace=wrap;connectable=0;strokeColor=inherit;overflow=hidden;fillColor=none;top=0;left=0;bottom=0;right=0;pointerEvents=1;fontSize=16;hachureGap=4;fontFamily=Architects Daughter;fontSource=https%3A%2F%2Ffonts.googleapis.com%2Fcss%3Ffamily%3DArchitects%2BDaughter;sketch=1;curveFitting=1;jiggle=2;" parent="Tw4VB3FX5BYVcJqlLoP5-128" vertex="1">
          <mxGeometry x="995" width="332" height="90" as="geometry">
            <mxRectangle width="332" height="90" as="alternateBounds" />
          </mxGeometry>
        </mxCell>
        <mxCell id="Tw4VB3FX5BYVcJqlLoP5-137" style="shape=partialRectangle;html=1;whiteSpace=wrap;connectable=0;strokeColor=inherit;overflow=hidden;fillColor=none;top=0;left=0;bottom=0;right=0;pointerEvents=1;fontSize=16;hachureGap=4;fontFamily=Architects Daughter;fontSource=https%3A%2F%2Ffonts.googleapis.com%2Fcss%3Ffamily%3DArchitects%2BDaughter;sketch=1;curveFitting=1;jiggle=2;" parent="Tw4VB3FX5BYVcJqlLoP5-128" vertex="1">
          <mxGeometry x="1327" width="331" height="90" as="geometry">
            <mxRectangle width="331" height="90" as="alternateBounds" />
          </mxGeometry>
        </mxCell>
        <mxCell id="Tw4VB3FX5BYVcJqlLoP5-140" style="shape=partialRectangle;html=1;whiteSpace=wrap;connectable=0;strokeColor=inherit;overflow=hidden;fillColor=none;top=0;left=0;bottom=0;right=0;pointerEvents=1;fontSize=16;hachureGap=4;fontFamily=Architects Daughter;fontSource=https%3A%2F%2Ffonts.googleapis.com%2Fcss%3Ffamily%3DArchitects%2BDaughter;sketch=1;curveFitting=1;jiggle=2;" parent="Tw4VB3FX5BYVcJqlLoP5-128" vertex="1">
          <mxGeometry x="1658" width="332" height="90" as="geometry">
            <mxRectangle width="332" height="90" as="alternateBounds" />
          </mxGeometry>
        </mxCell>
        <mxCell id="Tw4VB3FX5BYVcJqlLoP5-132" value="" style="shape=tableRow;horizontal=0;startSize=0;swimlaneHead=0;swimlaneBody=0;strokeColor=inherit;top=0;left=0;bottom=0;right=0;collapsible=0;dropTarget=0;fillColor=none;points=[[0,0.5],[1,0.5]];portConstraint=eastwest;fontSize=16;hachureGap=4;fontFamily=Architects Daughter;fontSource=https%3A%2F%2Ffonts.googleapis.com%2Fcss%3Ffamily%3DArchitects%2BDaughter;sketch=1;curveFitting=1;jiggle=2;" parent="Tw4VB3FX5BYVcJqlLoP5-123" vertex="1">
          <mxGeometry y="430" width="1990.0000000000002" height="78" as="geometry" />
        </mxCell>
        <mxCell id="Tw4VB3FX5BYVcJqlLoP5-200" style="shape=partialRectangle;html=1;whiteSpace=wrap;connectable=0;strokeColor=inherit;overflow=hidden;fillColor=none;top=0;left=0;bottom=0;right=0;pointerEvents=1;fontSize=16;hachureGap=4;fontFamily=Architects Daughter;fontSource=https%3A%2F%2Ffonts.googleapis.com%2Fcss%3Ffamily%3DArchitects%2BDaughter;sketch=1;curveFitting=1;jiggle=2;" parent="Tw4VB3FX5BYVcJqlLoP5-132" vertex="1">
          <mxGeometry width="332" height="78" as="geometry">
            <mxRectangle width="332" height="78" as="alternateBounds" />
          </mxGeometry>
        </mxCell>
        <mxCell id="Tw4VB3FX5BYVcJqlLoP5-133" value="" style="shape=partialRectangle;html=1;whiteSpace=wrap;connectable=0;strokeColor=inherit;overflow=hidden;fillColor=none;top=0;left=0;bottom=0;right=0;pointerEvents=1;fontSize=16;hachureGap=4;fontFamily=Architects Daughter;fontSource=https%3A%2F%2Ffonts.googleapis.com%2Fcss%3Ffamily%3DArchitects%2BDaughter;sketch=1;curveFitting=1;jiggle=2;" parent="Tw4VB3FX5BYVcJqlLoP5-132" vertex="1">
          <mxGeometry x="332" width="331" height="78" as="geometry">
            <mxRectangle width="331" height="78" as="alternateBounds" />
          </mxGeometry>
        </mxCell>
        <mxCell id="Tw4VB3FX5BYVcJqlLoP5-134" value="" style="shape=partialRectangle;html=1;whiteSpace=wrap;connectable=0;strokeColor=inherit;overflow=hidden;fillColor=none;top=0;left=0;bottom=0;right=0;pointerEvents=1;fontSize=16;hachureGap=4;fontFamily=Architects Daughter;fontSource=https%3A%2F%2Ffonts.googleapis.com%2Fcss%3Ffamily%3DArchitects%2BDaughter;sketch=1;curveFitting=1;jiggle=2;" parent="Tw4VB3FX5BYVcJqlLoP5-132" vertex="1">
          <mxGeometry x="663" width="332" height="78" as="geometry">
            <mxRectangle width="332" height="78" as="alternateBounds" />
          </mxGeometry>
        </mxCell>
        <mxCell id="Tw4VB3FX5BYVcJqlLoP5-135" value="" style="shape=partialRectangle;html=1;whiteSpace=wrap;connectable=0;strokeColor=inherit;overflow=hidden;fillColor=none;top=0;left=0;bottom=0;right=0;pointerEvents=1;fontSize=16;hachureGap=4;fontFamily=Architects Daughter;fontSource=https%3A%2F%2Ffonts.googleapis.com%2Fcss%3Ffamily%3DArchitects%2BDaughter;sketch=1;curveFitting=1;jiggle=2;" parent="Tw4VB3FX5BYVcJqlLoP5-132" vertex="1">
          <mxGeometry x="995" width="332" height="78" as="geometry">
            <mxRectangle width="332" height="78" as="alternateBounds" />
          </mxGeometry>
        </mxCell>
        <mxCell id="Tw4VB3FX5BYVcJqlLoP5-138" style="shape=partialRectangle;html=1;whiteSpace=wrap;connectable=0;strokeColor=inherit;overflow=hidden;fillColor=none;top=0;left=0;bottom=0;right=0;pointerEvents=1;fontSize=16;hachureGap=4;fontFamily=Architects Daughter;fontSource=https%3A%2F%2Ffonts.googleapis.com%2Fcss%3Ffamily%3DArchitects%2BDaughter;sketch=1;curveFitting=1;jiggle=2;" parent="Tw4VB3FX5BYVcJqlLoP5-132" vertex="1">
          <mxGeometry x="1327" width="331" height="78" as="geometry">
            <mxRectangle width="331" height="78" as="alternateBounds" />
          </mxGeometry>
        </mxCell>
        <mxCell id="Tw4VB3FX5BYVcJqlLoP5-141" style="shape=partialRectangle;html=1;whiteSpace=wrap;connectable=0;strokeColor=inherit;overflow=hidden;fillColor=none;top=0;left=0;bottom=0;right=0;pointerEvents=1;fontSize=16;hachureGap=4;fontFamily=Architects Daughter;fontSource=https%3A%2F%2Ffonts.googleapis.com%2Fcss%3Ffamily%3DArchitects%2BDaughter;sketch=1;curveFitting=1;jiggle=2;" parent="Tw4VB3FX5BYVcJqlLoP5-132" vertex="1">
          <mxGeometry x="1658" width="332" height="78" as="geometry">
            <mxRectangle width="332" height="78" as="alternateBounds" />
          </mxGeometry>
        </mxCell>
        <mxCell id="Tw4VB3FX5BYVcJqlLoP5-174" style="shape=tableRow;horizontal=0;startSize=0;swimlaneHead=0;swimlaneBody=0;strokeColor=inherit;top=0;left=0;bottom=0;right=0;collapsible=0;dropTarget=0;fillColor=none;points=[[0,0.5],[1,0.5]];portConstraint=eastwest;fontSize=16;hachureGap=4;fontFamily=Architects Daughter;fontSource=https%3A%2F%2Ffonts.googleapis.com%2Fcss%3Ffamily%3DArchitects%2BDaughter;sketch=1;curveFitting=1;jiggle=2;" parent="Tw4VB3FX5BYVcJqlLoP5-123" vertex="1">
          <mxGeometry y="508" width="1990.0000000000002" height="78" as="geometry" />
        </mxCell>
        <mxCell id="Tw4VB3FX5BYVcJqlLoP5-201" style="shape=partialRectangle;html=1;whiteSpace=wrap;connectable=0;strokeColor=inherit;overflow=hidden;fillColor=none;top=0;left=0;bottom=0;right=0;pointerEvents=1;fontSize=16;hachureGap=4;fontFamily=Architects Daughter;fontSource=https%3A%2F%2Ffonts.googleapis.com%2Fcss%3Ffamily%3DArchitects%2BDaughter;sketch=1;curveFitting=1;jiggle=2;" parent="Tw4VB3FX5BYVcJqlLoP5-174" vertex="1">
          <mxGeometry width="332" height="78" as="geometry">
            <mxRectangle width="332" height="78" as="alternateBounds" />
          </mxGeometry>
        </mxCell>
        <mxCell id="Tw4VB3FX5BYVcJqlLoP5-175" style="shape=partialRectangle;html=1;whiteSpace=wrap;connectable=0;strokeColor=inherit;overflow=hidden;fillColor=none;top=0;left=0;bottom=0;right=0;pointerEvents=1;fontSize=16;hachureGap=4;fontFamily=Architects Daughter;fontSource=https%3A%2F%2Ffonts.googleapis.com%2Fcss%3Ffamily%3DArchitects%2BDaughter;sketch=1;curveFitting=1;jiggle=2;" parent="Tw4VB3FX5BYVcJqlLoP5-174" vertex="1">
          <mxGeometry x="332" width="331" height="78" as="geometry">
            <mxRectangle width="331" height="78" as="alternateBounds" />
          </mxGeometry>
        </mxCell>
        <mxCell id="Tw4VB3FX5BYVcJqlLoP5-176" style="shape=partialRectangle;html=1;whiteSpace=wrap;connectable=0;strokeColor=inherit;overflow=hidden;fillColor=none;top=0;left=0;bottom=0;right=0;pointerEvents=1;fontSize=16;hachureGap=4;fontFamily=Architects Daughter;fontSource=https%3A%2F%2Ffonts.googleapis.com%2Fcss%3Ffamily%3DArchitects%2BDaughter;sketch=1;curveFitting=1;jiggle=2;" parent="Tw4VB3FX5BYVcJqlLoP5-174" vertex="1">
          <mxGeometry x="663" width="332" height="78" as="geometry">
            <mxRectangle width="332" height="78" as="alternateBounds" />
          </mxGeometry>
        </mxCell>
        <mxCell id="Tw4VB3FX5BYVcJqlLoP5-177" style="shape=partialRectangle;html=1;whiteSpace=wrap;connectable=0;strokeColor=inherit;overflow=hidden;fillColor=none;top=0;left=0;bottom=0;right=0;pointerEvents=1;fontSize=16;hachureGap=4;fontFamily=Architects Daughter;fontSource=https%3A%2F%2Ffonts.googleapis.com%2Fcss%3Ffamily%3DArchitects%2BDaughter;sketch=1;curveFitting=1;jiggle=2;" parent="Tw4VB3FX5BYVcJqlLoP5-174" vertex="1">
          <mxGeometry x="995" width="332" height="78" as="geometry">
            <mxRectangle width="332" height="78" as="alternateBounds" />
          </mxGeometry>
        </mxCell>
        <mxCell id="Tw4VB3FX5BYVcJqlLoP5-178" style="shape=partialRectangle;html=1;whiteSpace=wrap;connectable=0;strokeColor=inherit;overflow=hidden;fillColor=none;top=0;left=0;bottom=0;right=0;pointerEvents=1;fontSize=16;hachureGap=4;fontFamily=Architects Daughter;fontSource=https%3A%2F%2Ffonts.googleapis.com%2Fcss%3Ffamily%3DArchitects%2BDaughter;sketch=1;curveFitting=1;jiggle=2;" parent="Tw4VB3FX5BYVcJqlLoP5-174" vertex="1">
          <mxGeometry x="1327" width="331" height="78" as="geometry">
            <mxRectangle width="331" height="78" as="alternateBounds" />
          </mxGeometry>
        </mxCell>
        <mxCell id="Tw4VB3FX5BYVcJqlLoP5-179" style="shape=partialRectangle;html=1;whiteSpace=wrap;connectable=0;strokeColor=inherit;overflow=hidden;fillColor=none;top=0;left=0;bottom=0;right=0;pointerEvents=1;fontSize=16;hachureGap=4;fontFamily=Architects Daughter;fontSource=https%3A%2F%2Ffonts.googleapis.com%2Fcss%3Ffamily%3DArchitects%2BDaughter;sketch=1;curveFitting=1;jiggle=2;" parent="Tw4VB3FX5BYVcJqlLoP5-174" vertex="1">
          <mxGeometry x="1658" width="332" height="78" as="geometry">
            <mxRectangle width="332" height="78" as="alternateBounds" />
          </mxGeometry>
        </mxCell>
        <mxCell id="Tw4VB3FX5BYVcJqlLoP5-192" style="shape=tableRow;horizontal=0;startSize=0;swimlaneHead=0;swimlaneBody=0;strokeColor=inherit;top=0;left=0;bottom=0;right=0;collapsible=0;dropTarget=0;fillColor=none;points=[[0,0.5],[1,0.5]];portConstraint=eastwest;fontSize=16;hachureGap=4;fontFamily=Architects Daughter;fontSource=https%3A%2F%2Ffonts.googleapis.com%2Fcss%3Ffamily%3DArchitects%2BDaughter;sketch=1;curveFitting=1;jiggle=2;" parent="Tw4VB3FX5BYVcJqlLoP5-123" vertex="1">
          <mxGeometry y="586" width="1990.0000000000002" height="78" as="geometry" />
        </mxCell>
        <mxCell id="Tw4VB3FX5BYVcJqlLoP5-202" style="shape=partialRectangle;html=1;whiteSpace=wrap;connectable=0;strokeColor=inherit;overflow=hidden;fillColor=none;top=0;left=0;bottom=0;right=0;pointerEvents=1;fontSize=16;hachureGap=4;fontFamily=Architects Daughter;fontSource=https%3A%2F%2Ffonts.googleapis.com%2Fcss%3Ffamily%3DArchitects%2BDaughter;sketch=1;curveFitting=1;jiggle=2;" parent="Tw4VB3FX5BYVcJqlLoP5-192" vertex="1">
          <mxGeometry width="332" height="78" as="geometry">
            <mxRectangle width="332" height="78" as="alternateBounds" />
          </mxGeometry>
        </mxCell>
        <mxCell id="Tw4VB3FX5BYVcJqlLoP5-193" style="shape=partialRectangle;html=1;whiteSpace=wrap;connectable=0;strokeColor=inherit;overflow=hidden;fillColor=none;top=0;left=0;bottom=0;right=0;pointerEvents=1;fontSize=16;hachureGap=4;fontFamily=Architects Daughter;fontSource=https%3A%2F%2Ffonts.googleapis.com%2Fcss%3Ffamily%3DArchitects%2BDaughter;sketch=1;curveFitting=1;jiggle=2;" parent="Tw4VB3FX5BYVcJqlLoP5-192" vertex="1">
          <mxGeometry x="332" width="331" height="78" as="geometry">
            <mxRectangle width="331" height="78" as="alternateBounds" />
          </mxGeometry>
        </mxCell>
        <mxCell id="Tw4VB3FX5BYVcJqlLoP5-194" style="shape=partialRectangle;html=1;whiteSpace=wrap;connectable=0;strokeColor=inherit;overflow=hidden;fillColor=none;top=0;left=0;bottom=0;right=0;pointerEvents=1;fontSize=16;hachureGap=4;fontFamily=Architects Daughter;fontSource=https%3A%2F%2Ffonts.googleapis.com%2Fcss%3Ffamily%3DArchitects%2BDaughter;sketch=1;curveFitting=1;jiggle=2;" parent="Tw4VB3FX5BYVcJqlLoP5-192" vertex="1">
          <mxGeometry x="663" width="332" height="78" as="geometry">
            <mxRectangle width="332" height="78" as="alternateBounds" />
          </mxGeometry>
        </mxCell>
        <mxCell id="Tw4VB3FX5BYVcJqlLoP5-195" style="shape=partialRectangle;html=1;whiteSpace=wrap;connectable=0;strokeColor=inherit;overflow=hidden;fillColor=none;top=0;left=0;bottom=0;right=0;pointerEvents=1;fontSize=16;hachureGap=4;fontFamily=Architects Daughter;fontSource=https%3A%2F%2Ffonts.googleapis.com%2Fcss%3Ffamily%3DArchitects%2BDaughter;sketch=1;curveFitting=1;jiggle=2;" parent="Tw4VB3FX5BYVcJqlLoP5-192" vertex="1">
          <mxGeometry x="995" width="332" height="78" as="geometry">
            <mxRectangle width="332" height="78" as="alternateBounds" />
          </mxGeometry>
        </mxCell>
        <mxCell id="Tw4VB3FX5BYVcJqlLoP5-196" style="shape=partialRectangle;html=1;whiteSpace=wrap;connectable=0;strokeColor=inherit;overflow=hidden;fillColor=none;top=0;left=0;bottom=0;right=0;pointerEvents=1;fontSize=16;hachureGap=4;fontFamily=Architects Daughter;fontSource=https%3A%2F%2Ffonts.googleapis.com%2Fcss%3Ffamily%3DArchitects%2BDaughter;sketch=1;curveFitting=1;jiggle=2;" parent="Tw4VB3FX5BYVcJqlLoP5-192" vertex="1">
          <mxGeometry x="1327" width="331" height="78" as="geometry">
            <mxRectangle width="331" height="78" as="alternateBounds" />
          </mxGeometry>
        </mxCell>
        <mxCell id="Tw4VB3FX5BYVcJqlLoP5-197" style="shape=partialRectangle;html=1;whiteSpace=wrap;connectable=0;strokeColor=inherit;overflow=hidden;fillColor=none;top=0;left=0;bottom=0;right=0;pointerEvents=1;fontSize=16;hachureGap=4;fontFamily=Architects Daughter;fontSource=https%3A%2F%2Ffonts.googleapis.com%2Fcss%3Ffamily%3DArchitects%2BDaughter;sketch=1;curveFitting=1;jiggle=2;" parent="Tw4VB3FX5BYVcJqlLoP5-192" vertex="1">
          <mxGeometry x="1658" width="332" height="78" as="geometry">
            <mxRectangle width="332" height="78" as="alternateBounds" />
          </mxGeometry>
        </mxCell>
        <mxCell id="Tw4VB3FX5BYVcJqlLoP5-186" style="shape=tableRow;horizontal=0;startSize=0;swimlaneHead=0;swimlaneBody=0;strokeColor=inherit;top=0;left=0;bottom=0;right=0;collapsible=0;dropTarget=0;fillColor=none;points=[[0,0.5],[1,0.5]];portConstraint=eastwest;fontSize=16;hachureGap=4;fontFamily=Architects Daughter;fontSource=https%3A%2F%2Ffonts.googleapis.com%2Fcss%3Ffamily%3DArchitects%2BDaughter;sketch=1;curveFitting=1;jiggle=2;" parent="Tw4VB3FX5BYVcJqlLoP5-123" vertex="1">
          <mxGeometry y="664" width="1990.0000000000002" height="77" as="geometry" />
        </mxCell>
        <mxCell id="Tw4VB3FX5BYVcJqlLoP5-203" style="shape=partialRectangle;html=1;whiteSpace=wrap;connectable=0;strokeColor=inherit;overflow=hidden;fillColor=none;top=0;left=0;bottom=0;right=0;pointerEvents=1;fontSize=16;hachureGap=4;fontFamily=Architects Daughter;fontSource=https%3A%2F%2Ffonts.googleapis.com%2Fcss%3Ffamily%3DArchitects%2BDaughter;sketch=1;curveFitting=1;jiggle=2;" parent="Tw4VB3FX5BYVcJqlLoP5-186" vertex="1">
          <mxGeometry width="332" height="77" as="geometry">
            <mxRectangle width="332" height="77" as="alternateBounds" />
          </mxGeometry>
        </mxCell>
        <mxCell id="Tw4VB3FX5BYVcJqlLoP5-187" style="shape=partialRectangle;html=1;whiteSpace=wrap;connectable=0;strokeColor=inherit;overflow=hidden;fillColor=none;top=0;left=0;bottom=0;right=0;pointerEvents=1;fontSize=16;hachureGap=4;fontFamily=Architects Daughter;fontSource=https%3A%2F%2Ffonts.googleapis.com%2Fcss%3Ffamily%3DArchitects%2BDaughter;sketch=1;curveFitting=1;jiggle=2;" parent="Tw4VB3FX5BYVcJqlLoP5-186" vertex="1">
          <mxGeometry x="332" width="331" height="77" as="geometry">
            <mxRectangle width="331" height="77" as="alternateBounds" />
          </mxGeometry>
        </mxCell>
        <mxCell id="Tw4VB3FX5BYVcJqlLoP5-188" style="shape=partialRectangle;html=1;whiteSpace=wrap;connectable=0;strokeColor=inherit;overflow=hidden;fillColor=none;top=0;left=0;bottom=0;right=0;pointerEvents=1;fontSize=16;hachureGap=4;fontFamily=Architects Daughter;fontSource=https%3A%2F%2Ffonts.googleapis.com%2Fcss%3Ffamily%3DArchitects%2BDaughter;sketch=1;curveFitting=1;jiggle=2;" parent="Tw4VB3FX5BYVcJqlLoP5-186" vertex="1">
          <mxGeometry x="663" width="332" height="77" as="geometry">
            <mxRectangle width="332" height="77" as="alternateBounds" />
          </mxGeometry>
        </mxCell>
        <mxCell id="Tw4VB3FX5BYVcJqlLoP5-189" style="shape=partialRectangle;html=1;whiteSpace=wrap;connectable=0;strokeColor=inherit;overflow=hidden;fillColor=none;top=0;left=0;bottom=0;right=0;pointerEvents=1;fontSize=16;hachureGap=4;fontFamily=Architects Daughter;fontSource=https%3A%2F%2Ffonts.googleapis.com%2Fcss%3Ffamily%3DArchitects%2BDaughter;sketch=1;curveFitting=1;jiggle=2;" parent="Tw4VB3FX5BYVcJqlLoP5-186" vertex="1">
          <mxGeometry x="995" width="332" height="77" as="geometry">
            <mxRectangle width="332" height="77" as="alternateBounds" />
          </mxGeometry>
        </mxCell>
        <mxCell id="Tw4VB3FX5BYVcJqlLoP5-190" style="shape=partialRectangle;html=1;whiteSpace=wrap;connectable=0;strokeColor=inherit;overflow=hidden;fillColor=none;top=0;left=0;bottom=0;right=0;pointerEvents=1;fontSize=16;hachureGap=4;fontFamily=Architects Daughter;fontSource=https%3A%2F%2Ffonts.googleapis.com%2Fcss%3Ffamily%3DArchitects%2BDaughter;sketch=1;curveFitting=1;jiggle=2;" parent="Tw4VB3FX5BYVcJqlLoP5-186" vertex="1">
          <mxGeometry x="1327" width="331" height="77" as="geometry">
            <mxRectangle width="331" height="77" as="alternateBounds" />
          </mxGeometry>
        </mxCell>
        <mxCell id="Tw4VB3FX5BYVcJqlLoP5-191" style="shape=partialRectangle;html=1;whiteSpace=wrap;connectable=0;strokeColor=inherit;overflow=hidden;fillColor=none;top=0;left=0;bottom=0;right=0;pointerEvents=1;fontSize=16;hachureGap=4;fontFamily=Architects Daughter;fontSource=https%3A%2F%2Ffonts.googleapis.com%2Fcss%3Ffamily%3DArchitects%2BDaughter;sketch=1;curveFitting=1;jiggle=2;" parent="Tw4VB3FX5BYVcJqlLoP5-186" vertex="1">
          <mxGeometry x="1658" width="332" height="77" as="geometry">
            <mxRectangle width="332" height="77" as="alternateBounds" />
          </mxGeometry>
        </mxCell>
        <mxCell id="Tw4VB3FX5BYVcJqlLoP5-73" value="Traveller" style="shape=umlActor;verticalLabelPosition=bottom;verticalAlign=top;html=1;outlineConnect=0;hachureGap=4;fontFamily=Architects Daughter;fontSource=https%3A%2F%2Ffonts.googleapis.com%2Fcss%3Ffamily%3DArchitects%2BDaughter;fontSize=20;sketch=1;curveFitting=1;jiggle=2;" parent="Tw4VB3FX5BYVcJqlLoP5-236" vertex="1">
          <mxGeometry x="515.1197916666667" y="160" width="31.093750000000004" height="60" as="geometry" />
        </mxCell>
        <mxCell id="Tw4VB3FX5BYVcJqlLoP5-74" value="Travel agent" style="shape=umlActor;verticalLabelPosition=bottom;verticalAlign=top;html=1;outlineConnect=0;hachureGap=4;fontFamily=Architects Daughter;fontSource=https%3A%2F%2Ffonts.googleapis.com%2Fcss%3Ffamily%3DArchitects%2BDaughter;fontSize=20;sketch=1;curveFitting=1;jiggle=2;" parent="Tw4VB3FX5BYVcJqlLoP5-236" vertex="1">
          <mxGeometry x="827.0937500000001" y="160" width="31.093750000000004" height="60" as="geometry" />
        </mxCell>
        <mxCell id="Tw4VB3FX5BYVcJqlLoP5-77" value="Support user" style="shape=umlActor;verticalLabelPosition=bottom;verticalAlign=top;html=1;outlineConnect=0;hachureGap=4;fontFamily=Architects Daughter;fontSource=https%3A%2F%2Ffonts.googleapis.com%2Fcss%3Ffamily%3DArchitects%2BDaughter;fontSize=20;sketch=1;curveFitting=1;jiggle=2;" parent="Tw4VB3FX5BYVcJqlLoP5-236" vertex="1">
          <mxGeometry x="1138.0312500000002" y="160" width="31.093750000000004" height="60" as="geometry" />
        </mxCell>
        <mxCell id="Tw4VB3FX5BYVcJqlLoP5-78" value="Data consumer" style="shape=umlActor;verticalLabelPosition=bottom;verticalAlign=top;html=1;outlineConnect=0;hachureGap=4;fontFamily=Architects Daughter;fontSource=https%3A%2F%2Ffonts.googleapis.com%2Fcss%3Ffamily%3DArchitects%2BDaughter;fontSize=20;sketch=1;curveFitting=1;jiggle=2;" parent="Tw4VB3FX5BYVcJqlLoP5-236" vertex="1">
          <mxGeometry x="1450.0052083333335" y="160" width="31.093750000000004" height="60" as="geometry" />
        </mxCell>
        <mxCell id="Tw4VB3FX5BYVcJqlLoP5-79" value="Partner Employee &lt;br&gt;Manager" style="shape=umlActor;verticalLabelPosition=bottom;verticalAlign=top;html=1;outlineConnect=0;hachureGap=4;fontFamily=Architects Daughter;fontSource=https%3A%2F%2Ffonts.googleapis.com%2Fcss%3Ffamily%3DArchitects%2BDaughter;fontSize=20;sketch=1;curveFitting=1;jiggle=2;" parent="Tw4VB3FX5BYVcJqlLoP5-236" vertex="1">
          <mxGeometry x="1803.4375000000002" y="160" width="31.093750000000004" height="60" as="geometry" />
        </mxCell>
        <mxCell id="Tw4VB3FX5BYVcJqlLoP5-205" value="Login" style="text;html=1;strokeColor=none;fillColor=none;align=center;verticalAlign=middle;whiteSpace=wrap;rounded=0;fontSize=20;fontFamily=Architects Daughter;sketch=1;curveFitting=1;jiggle=2;" parent="Tw4VB3FX5BYVcJqlLoP5-236" vertex="1">
          <mxGeometry x="114.01041666666667" y="360" width="62.18750000000001" height="30" as="geometry" />
        </mxCell>
        <mxCell id="Tw4VB3FX5BYVcJqlLoP5-206" value="Register" style="text;html=1;strokeColor=none;fillColor=none;align=center;verticalAlign=middle;whiteSpace=wrap;rounded=0;fontSize=20;fontFamily=Architects Daughter;sketch=1;curveFitting=1;jiggle=2;" parent="Tw4VB3FX5BYVcJqlLoP5-236" vertex="1">
          <mxGeometry x="114.01041666666667" y="440" width="62.18750000000001" height="30" as="geometry" />
        </mxCell>
        <mxCell id="Tw4VB3FX5BYVcJqlLoP5-207" value="Recover password" style="text;html=1;strokeColor=none;fillColor=none;align=center;verticalAlign=middle;whiteSpace=wrap;rounded=0;fontSize=20;fontFamily=Architects Daughter;sketch=1;curveFitting=1;jiggle=2;" parent="Tw4VB3FX5BYVcJqlLoP5-236" vertex="1">
          <mxGeometry x="51.82291666666667" y="520" width="186.56250000000003" height="30" as="geometry" />
        </mxCell>
        <mxCell id="Tw4VB3FX5BYVcJqlLoP5-208" value="MFA" style="text;html=1;strokeColor=none;fillColor=none;align=center;verticalAlign=middle;whiteSpace=wrap;rounded=0;fontSize=20;fontFamily=Architects Daughter;sketch=1;curveFitting=1;jiggle=2;" parent="Tw4VB3FX5BYVcJqlLoP5-236" vertex="1">
          <mxGeometry x="51.82291666666667" y="604" width="186.56250000000003" height="30" as="geometry" />
        </mxCell>
        <mxCell id="Tw4VB3FX5BYVcJqlLoP5-209" value="Manage user access" style="text;html=1;strokeColor=none;fillColor=none;align=center;verticalAlign=middle;whiteSpace=wrap;rounded=0;fontSize=20;fontFamily=Architects Daughter;sketch=1;curveFitting=1;jiggle=2;" parent="Tw4VB3FX5BYVcJqlLoP5-236" vertex="1">
          <mxGeometry x="51.82291666666667" y="683" width="186.56250000000003" height="30" as="geometry" />
        </mxCell>
        <mxCell id="Tw4VB3FX5BYVcJqlLoP5-219" value="" style="ellipse;shape=doubleEllipse;whiteSpace=wrap;html=1;aspect=fixed;hachureGap=4;fontFamily=Architects Daughter;fontSource=https%3A%2F%2Ffonts.googleapis.com%2Fcss%3Ffamily%3DArchitects%2BDaughter;fontSize=20;fillColor=#008a00;fontColor=#ffffff;strokeColor=#005700;sketch=1;curveFitting=1;jiggle=2;" parent="Tw4VB3FX5BYVcJqlLoP5-236" vertex="1">
          <mxGeometry x="487.13541666666674" y="360" width="39.375" height="39.375" as="geometry" />
        </mxCell>
        <mxCell id="Tw4VB3FX5BYVcJqlLoP5-220" value="" style="ellipse;shape=doubleEllipse;whiteSpace=wrap;html=1;aspect=fixed;hachureGap=4;fontFamily=Architects Daughter;fontSource=https%3A%2F%2Ffonts.googleapis.com%2Fcss%3Ffamily%3DArchitects%2BDaughter;fontSize=20;fillColor=#008a00;fontColor=#ffffff;strokeColor=#005700;sketch=1;curveFitting=1;jiggle=2;" parent="Tw4VB3FX5BYVcJqlLoP5-236" vertex="1">
          <mxGeometry x="487.13541666666674" y="440" width="39.375" height="39.375" as="geometry" />
        </mxCell>
        <mxCell id="Tw4VB3FX5BYVcJqlLoP5-221" value="" style="ellipse;shape=doubleEllipse;whiteSpace=wrap;html=1;aspect=fixed;hachureGap=4;fontFamily=Architects Daughter;fontSource=https%3A%2F%2Ffonts.googleapis.com%2Fcss%3Ffamily%3DArchitects%2BDaughter;fontSize=20;fillColor=#008a00;fontColor=#ffffff;strokeColor=#005700;sketch=1;curveFitting=1;jiggle=2;" parent="Tw4VB3FX5BYVcJqlLoP5-236" vertex="1">
          <mxGeometry x="487.13541666666674" y="520" width="39.375" height="39.375" as="geometry" />
        </mxCell>
        <mxCell id="Tw4VB3FX5BYVcJqlLoP5-222" value="" style="ellipse;shape=doubleEllipse;whiteSpace=wrap;html=1;aspect=fixed;hachureGap=4;fontFamily=Architects Daughter;fontSource=https%3A%2F%2Ffonts.googleapis.com%2Fcss%3Ffamily%3DArchitects%2BDaughter;fontSize=20;fillColor=#008a00;fontColor=#ffffff;strokeColor=#005700;sketch=1;curveFitting=1;jiggle=2;" parent="Tw4VB3FX5BYVcJqlLoP5-236" vertex="1">
          <mxGeometry x="487.13541666666674" y="599.31" width="39.375" height="39.375" as="geometry" />
        </mxCell>
        <mxCell id="Tw4VB3FX5BYVcJqlLoP5-223" value="" style="ellipse;shape=doubleEllipse;whiteSpace=wrap;html=1;aspect=fixed;hachureGap=4;fontFamily=Architects Daughter;fontSource=https%3A%2F%2Ffonts.googleapis.com%2Fcss%3Ffamily%3DArchitects%2BDaughter;fontSize=20;fillColor=#008a00;fontColor=#ffffff;strokeColor=#005700;sketch=1;curveFitting=1;jiggle=2;" parent="Tw4VB3FX5BYVcJqlLoP5-236" vertex="1">
          <mxGeometry x="799.1093750000001" y="355" width="39.375" height="39.375" as="geometry" />
        </mxCell>
        <mxCell id="Tw4VB3FX5BYVcJqlLoP5-224" value="" style="ellipse;shape=doubleEllipse;whiteSpace=wrap;html=1;aspect=fixed;hachureGap=4;fontFamily=Architects Daughter;fontSource=https%3A%2F%2Ffonts.googleapis.com%2Fcss%3Ffamily%3DArchitects%2BDaughter;fontSize=20;fillColor=#008a00;fontColor=#ffffff;strokeColor=#005700;sketch=1;curveFitting=1;jiggle=2;" parent="Tw4VB3FX5BYVcJqlLoP5-236" vertex="1">
          <mxGeometry x="798.0729166666667" y="435" width="39.375" height="39.375" as="geometry" />
        </mxCell>
        <mxCell id="Tw4VB3FX5BYVcJqlLoP5-225" value="" style="ellipse;shape=doubleEllipse;whiteSpace=wrap;html=1;aspect=fixed;hachureGap=4;fontFamily=Architects Daughter;fontSource=https%3A%2F%2Ffonts.googleapis.com%2Fcss%3Ffamily%3DArchitects%2BDaughter;fontSize=20;fillColor=#008a00;fontColor=#ffffff;strokeColor=#005700;sketch=1;curveFitting=1;jiggle=2;" parent="Tw4VB3FX5BYVcJqlLoP5-236" vertex="1">
          <mxGeometry x="1138.0312500000002" y="350" width="39.375" height="39.375" as="geometry" />
        </mxCell>
        <mxCell id="Tw4VB3FX5BYVcJqlLoP5-226" value="" style="ellipse;shape=doubleEllipse;whiteSpace=wrap;html=1;aspect=fixed;hachureGap=4;fontFamily=Architects Daughter;fontSource=https%3A%2F%2Ffonts.googleapis.com%2Fcss%3Ffamily%3DArchitects%2BDaughter;fontSize=20;fillColor=#008a00;fontColor=#ffffff;strokeColor=#005700;sketch=1;curveFitting=1;jiggle=2;" parent="Tw4VB3FX5BYVcJqlLoP5-236" vertex="1">
          <mxGeometry x="798.0729166666667" y="590" width="39.375" height="39.375" as="geometry" />
        </mxCell>
        <mxCell id="Tw4VB3FX5BYVcJqlLoP5-227" value="" style="ellipse;shape=doubleEllipse;whiteSpace=wrap;html=1;aspect=fixed;hachureGap=4;fontFamily=Architects Daughter;fontSource=https%3A%2F%2Ffonts.googleapis.com%2Fcss%3Ffamily%3DArchitects%2BDaughter;fontSize=20;fillColor=#008a00;fontColor=#ffffff;strokeColor=#005700;sketch=1;curveFitting=1;jiggle=2;" parent="Tw4VB3FX5BYVcJqlLoP5-236" vertex="1">
          <mxGeometry x="1140.1041666666667" y="590" width="39.375" height="39.375" as="geometry" />
        </mxCell>
        <mxCell id="Tw4VB3FX5BYVcJqlLoP5-228" value="" style="ellipse;shape=doubleEllipse;whiteSpace=wrap;html=1;aspect=fixed;hachureGap=4;fontFamily=Architects Daughter;fontSource=https%3A%2F%2Ffonts.googleapis.com%2Fcss%3Ffamily%3DArchitects%2BDaughter;fontSize=20;fillColor=#008a00;fontColor=#ffffff;strokeColor=#005700;sketch=1;curveFitting=1;jiggle=2;" parent="Tw4VB3FX5BYVcJqlLoP5-236" vertex="1">
          <mxGeometry x="1140.1041666666667" y="670" width="39.375" height="39.375" as="geometry" />
        </mxCell>
        <mxCell id="Tw4VB3FX5BYVcJqlLoP5-229" value="" style="ellipse;shape=doubleEllipse;whiteSpace=wrap;html=1;aspect=fixed;hachureGap=4;fontFamily=Architects Daughter;fontSource=https%3A%2F%2Ffonts.googleapis.com%2Fcss%3Ffamily%3DArchitects%2BDaughter;fontSize=20;fillColor=#008a00;fontColor=#ffffff;strokeColor=#005700;sketch=1;curveFitting=1;jiggle=2;" parent="Tw4VB3FX5BYVcJqlLoP5-236" vertex="1">
          <mxGeometry x="1439.6406250000002" y="355" width="39.375" height="39.375" as="geometry" />
        </mxCell>
        <mxCell id="Tw4VB3FX5BYVcJqlLoP5-230" value="" style="ellipse;shape=doubleEllipse;whiteSpace=wrap;html=1;aspect=fixed;hachureGap=4;fontFamily=Architects Daughter;fontSource=https%3A%2F%2Ffonts.googleapis.com%2Fcss%3Ffamily%3DArchitects%2BDaughter;fontSize=20;fillColor=#008a00;fontColor=#ffffff;strokeColor=#005700;sketch=1;curveFitting=1;jiggle=2;" parent="Tw4VB3FX5BYVcJqlLoP5-236" vertex="1">
          <mxGeometry x="1782.7083333333335" y="354" width="39.375" height="39.375" as="geometry" />
        </mxCell>
        <mxCell id="Tw4VB3FX5BYVcJqlLoP5-231" value="" style="ellipse;shape=doubleEllipse;whiteSpace=wrap;html=1;aspect=fixed;hachureGap=4;fontFamily=Architects Daughter;fontSource=https%3A%2F%2Ffonts.googleapis.com%2Fcss%3Ffamily%3DArchitects%2BDaughter;fontSize=20;fillColor=#008a00;fontColor=#ffffff;strokeColor=#005700;sketch=1;curveFitting=1;jiggle=2;" parent="Tw4VB3FX5BYVcJqlLoP5-236" vertex="1">
          <mxGeometry x="1444.8229166666667" y="590" width="39.375" height="39.375" as="geometry" />
        </mxCell>
        <mxCell id="Tw4VB3FX5BYVcJqlLoP5-232" value="" style="ellipse;shape=doubleEllipse;whiteSpace=wrap;html=1;aspect=fixed;hachureGap=4;fontFamily=Architects Daughter;fontSource=https%3A%2F%2Ffonts.googleapis.com%2Fcss%3Ffamily%3DArchitects%2BDaughter;fontSize=20;fillColor=#008a00;fontColor=#ffffff;strokeColor=#005700;sketch=1;curveFitting=1;jiggle=2;" parent="Tw4VB3FX5BYVcJqlLoP5-236" vertex="1">
          <mxGeometry x="1793.0729166666667" y="590" width="39.375" height="39.375" as="geometry" />
        </mxCell>
        <mxCell id="Tw4VB3FX5BYVcJqlLoP5-233" value="" style="ellipse;shape=doubleEllipse;whiteSpace=wrap;html=1;aspect=fixed;hachureGap=4;fontFamily=Architects Daughter;fontSource=https%3A%2F%2Ffonts.googleapis.com%2Fcss%3Ffamily%3DArchitects%2BDaughter;fontSize=20;fillColor=#008a00;fontColor=#ffffff;strokeColor=#005700;sketch=1;curveFitting=1;jiggle=2;" parent="Tw4VB3FX5BYVcJqlLoP5-236" vertex="1">
          <mxGeometry x="1793.0729166666667" y="665" width="39.375" height="39.375" as="geometry" />
        </mxCell>
        <mxCell id="Tw4VB3FX5BYVcJqlLoP5-24" value="" style="ellipse;shape=cloud;whiteSpace=wrap;html=1;hachureGap=4;fontFamily=Architects Daughter;fontSource=https%3A%2F%2Ffonts.googleapis.com%2Fcss%3Ffamily%3DArchitects%2BDaughter;fontSize=20;fillColor=#f0a30a;fontColor=#000000;strokeColor=#BD7000;container=0;sketch=1;curveFitting=1;jiggle=2;" parent="1" vertex="1">
          <mxGeometry x="150" y="609" width="580" height="351" as="geometry" />
        </mxCell>
        <mxCell id="Tw4VB3FX5BYVcJqlLoP5-65" value="" style="ellipse;shape=cloud;whiteSpace=wrap;html=1;hachureGap=4;fontFamily=Architects Daughter;fontSource=https%3A%2F%2Ffonts.googleapis.com%2Fcss%3Ffamily%3DArchitects%2BDaughter;fontSize=20;fillColor=#f0a30a;fontColor=#000000;strokeColor=#BD7000;container=0;sketch=1;curveFitting=1;jiggle=2;" parent="1" vertex="1">
          <mxGeometry x="890" y="600" width="510" height="344" as="geometry" />
        </mxCell>
        <mxCell id="Tw4VB3FX5BYVcJqlLoP5-72" style="edgeStyle=orthogonalEdgeStyle;rounded=0;hachureGap=4;orthogonalLoop=1;jettySize=auto;html=1;entryX=0.16;entryY=0.55;entryDx=0;entryDy=0;entryPerimeter=0;fontFamily=Architects Daughter;fontSource=https%3A%2F%2Ffonts.googleapis.com%2Fcss%3Ffamily%3DArchitects%2BDaughter;fontSize=16;exitX=0.875;exitY=0.5;exitDx=0;exitDy=0;exitPerimeter=0;sketch=1;curveFitting=1;jiggle=2;" parent="1" source="Tw4VB3FX5BYVcJqlLoP5-24" target="Tw4VB3FX5BYVcJqlLoP5-65" edge="1">
          <mxGeometry relative="1" as="geometry">
            <mxPoint x="550" y="712" as="sourcePoint" />
          </mxGeometry>
        </mxCell>
        <mxCell id="Tw4VB3FX5BYVcJqlLoP5-251" value="get identities" style="edgeLabel;html=1;align=center;verticalAlign=middle;resizable=0;points=[];fontSize=20;fontFamily=Architects Daughter;container=0;sketch=1;curveFitting=1;jiggle=2;" parent="Tw4VB3FX5BYVcJqlLoP5-72" vertex="1" connectable="0">
          <mxGeometry x="0.0248" y="4" relative="1" as="geometry">
            <mxPoint as="offset" />
          </mxGeometry>
        </mxCell>
        <mxCell id="Tw4VB3FX5BYVcJqlLoP5-66" value="identity provider" style="text;html=1;strokeColor=none;fillColor=none;align=center;verticalAlign=middle;whiteSpace=wrap;rounded=0;fontSize=20;fontFamily=Architects Daughter;fontColor=#000000;glass=0;container=0;sketch=1;curveFitting=1;jiggle=2;" parent="1" vertex="1">
          <mxGeometry x="1080" y="744.5" width="170" height="80" as="geometry" />
        </mxCell>
        <mxCell id="Tw4VB3FX5BYVcJqlLoP5-25" value="Authorization provider" style="text;html=1;strokeColor=none;fillColor=none;align=center;verticalAlign=middle;whiteSpace=wrap;rounded=0;fontSize=20;fontFamily=Architects Daughter;fontColor=#000000;glass=0;container=0;sketch=1;curveFitting=1;jiggle=2;" parent="1" vertex="1">
          <mxGeometry x="360" y="750" width="170" height="80" as="geometry" />
        </mxCell>
        <mxCell id="Tw4VB3FX5BYVcJqlLoP5-287" value="Road Warrior" style="text;html=1;strokeColor=#666666;fillColor=#f5f5f5;align=center;verticalAlign=middle;whiteSpace=wrap;rounded=0;fontSize=20;fontFamily=Architects Daughter;fontColor=#333333;container=0;sketch=1;curveFitting=1;jiggle=2;" parent="1" vertex="1">
          <mxGeometry x="-472.5" y="340" width="270" height="30" as="geometry" />
        </mxCell>
      </root>
    </mxGraphModel>
  </diagram>
</mxfile>
